HIERARCHY
ROOT Hips
{
  OFFSET 130.229 99.7389 276.872
  CHANNELS 6 Xposition Yposition Zposition Zrotation Xrotation Yrotation
  JOINT RightUpLeg
  {
    OFFSET -8.9458 -8.66707 0.101652
    CHANNELS 3 Zrotation Xrotation Yrotation
    JOINT RightLeg
    {
      OFFSET 0 -44.4227 1.3727
      CHANNELS 3 Zrotation Xrotation Yrotation
      JOINT RightFoot
      {
        OFFSET 0.253549 -42.0924 -1.46059
        CHANNELS 3 Zrotation Xrotation Yrotation
        JOINT RightToes
        {
          OFFSET 0.04 -4.41509 8.4991
          CHANNELS 3 Zrotation Xrotation Yrotation
          End Site
          {
            OFFSET -0.08 -0.137448 9.77979
          }
        }
      }
    }
  }
  JOINT Spine
  {
    OFFSET 0 11.8905 0
    CHANNELS 3 Zrotation Xrotation Yrotation
    JOINT Spine1
    {
      OFFSET 0 25.6574 0.127663
      CHANNELS 3 Zrotation Xrotation Yrotation
      JOINT HEad
      {
        OFFSET 0 8.73416 0.011341
        CHANNELS 3 Zrotation Xrotation Yrotation
        End Site
        {
          OFFSET -0.29 12.7742 2.51395
        }
      }
      JOINT LeftShoulder1
      {
        OFFSET 8.99 -0.362252 -0.22
        CHANNELS 3 Zrotation Xrotation Yrotation
        JOINT LeftArm
        {
          OFFSET 10.2827 -0.00338 0.322123
          CHANNELS 3 Zrotation Xrotation Yrotation
          JOINT LeftForeArm
          {
            OFFSET 32.7669 0.099144 -1.42434
            CHANNELS 3 Zrotation Xrotation Yrotation
            JOINT LeftHand
            {
              OFFSET 27.5643 0.085362 1.02216
              CHANNELS 3 Zrotation Xrotation Yrotation
              End Site
              {
                OFFSET 16.7443 -0.6 1.50291
              }
            }
          }
        }
      }
      JOINT RightShoulder
      {
        OFFSET -8.99 -0.362252 -0.22
        CHANNELS 3 Zrotation Xrotation Yrotation
        JOINT RightArm
        {
          OFFSET -10.2827 -0.00338 0.322123
          CHANNELS 3 Zrotation Xrotation Yrotation
          JOINT RightForeArm
          {
            OFFSET -32.8971 0.099144 -1.42434
            CHANNELS 3 Zrotation Xrotation Yrotation
            JOINT RightHand
            {
              OFFSET -27.4921 0.085362 1.02216
              CHANNELS 3 Zrotation Xrotation Yrotation
              End Site
              {
                OFFSET -16.6312 -0.6 1.50291
              }
            }
          }
        }
      }
    }
  }
  JOINT LeftUpLeg
  {
    OFFSET 8.9458 -8.66707 0.101652
    CHANNELS 3 Zrotation Xrotation Yrotation
    JOINT LeftLeg
    {
      OFFSET 0 -44.4227 1.3727
      CHANNELS 3 Zrotation Xrotation Yrotation
      JOINT LeftFoot
      {
        OFFSET -0.253549 -42.0924 -1.46059
        CHANNELS 3 Zrotation Xrotation Yrotation
        JOINT LeftToes
        {
          OFFSET -0.04 -4.41509 8.4991
          CHANNELS 3 Zrotation Xrotation Yrotation
          End Site
          {
            OFFSET 0.08 -0.047448 9.77979
          }
        }
      }
    }
  }
}
MOTION
Frames:	20
Frame Time:	0.0166667
130.229 99.7389 276.872 -0.368405 -1.51226 169.371 0.918874 2.10572 9.97027 0.494362 20.1218 -9.04541 6.3605 -8.34899 0.104679 -3.4752 -5.67057 1.34192 6.17329 0.401667 2.45341 3.42852 9.17682 1.54784 -6.77438 -3.216 4.43363 -1.19271e-015 0 -7.95139e-016 -126.416 -57.5513 -38.9588 6.25485 11.0407 -4.41019 0.368473 9.90896 -0.00117923 0.844122 1.04935 7.87675 107.523 -35.0428 58.5576 -0.635532 11.0704 -4.23514 -0.369625 9.91382 0.00119887 0.872467 -21.9703 -6.96353 1.82935 2.1131 21.6958 -0.114151 8.22609 0.0800639 -18.9638 3.36068 4.24589 
130.102 99.424 274.616 -0.167363 -1.46153 169.128 0.859617 2.74845 9.89988 0.305024 21.6482 -7.81743 6.56198 -8.25674 0.113236 -2.8916 -6.71248 0.295208 6.31043 0.299498 2.30758 3.53002 8.732 1.34454 -6.92385 -2.77134 4.94083 9.93923e-016 -1.59028e-015 -0 -126.326 -58.4196 -38.9251 5.80982 11.0951 -4.23736 0.368473 9.90896 -0.00117923 0.191402 1.05244 8.69992 107.671 -35.4443 57.9658 -0.546905 11.0924 -4.27078 -0.369625 9.91382 0.00119887 0.992183 -22.0848 -4.56008 1.43676 3.49126 21.9391 -1.04492 8.37191 0.178212 -17.5081 3.79168 3.54998 
129.963 99.133 272.334 -0.100469 -1.28964 168.909 0.56761 3.38042 9.91463 0.159594 23.3396 -7.21244 6.80065 -7.77 0.0964139 -3.53459 -8.23129 0.0529405 6.27296 0.267669 2.12643 3.52124 8.36783 1.1497 -7.01867 -2.31755 5.42625 7.95139e-016 0 3.18055e-015 -126.293 -59.2638 -38.9701 5.4352 11.1373 -4.1258 0.368473 9.90896 -0.00117923 -0.415026 1.0515 9.44906 107.891 -35.8615 57.3563 -0.497297 11.1097 -4.2907 -0.369625 9.91382 0.00119887 0.875159 -22.056 -2.2583 1.10384 4.94512 21.8734 -1.21371 8.74688 0.189887 -16.7494 4.16229 3.11626 
129.776 98.8826 269.932 -0.391651 -0.802734 168.764 -0.392896 4.13297 10.1469 0.400276 25.2928 -8.39502 7.30705 -6.29344 0.0130756 -7.32631 -10.9614 2.25671 5.8047 0.374208 1.83934 3.30487 8.15736 0.954415 -7.11691 -1.71264 5.86524 -2.5842e-015 0 3.18055e-015 -126.323 -60.1794 -38.9966 5.2006 11.1547 -4.13971 0.368473 9.90896 -0.00117923 -1.11231 1.03397 10.2227 108.293 -36.5028 56.5841 -0.539732 11.1155 -4.27356 -0.369625 9.91382 0.00119887 0.0200042 -21.7176 0.337336 1.15281 6.55714 20.4285 1.25363 10.0611 -0.102909 -18.8998 4.55389 3.6194 
129.6 98.7179 267.595 -0.902238 -0.0986165 168.643 -1.66974 4.56463 10.536 0.937411 27.8086 -10.6539 7.55383 -4.03515 -0.112994 -12.5097 -14.5556 5.35272 4.98406 0.696682 1.51681 2.75048 8.20497 0.815786 -6.79231 -1.34448 6.24557 -1.19271e-015 1.59028e-015 -1.59028e-015 -126.667 -60.7712 -39.6095 5.18086 11.1361 -4.33188 0.368473 9.90896 -0.00117923 -1.30258 1.02274 10.4292 108.858 -36.8198 56.0361 -0.671397 11.1116 -4.22047 -0.369625 9.91382 0.00119887 -1.12685 -21.1617 1.58632 1.08925 8.46698 19.5219 3.81275 11.1005 -0.396958 -20.1816 4.47916 4.08758 
129.499 98.7314 265.552 -1.59177 0.929783 168.458 -3.10555 4.32731 11.32 2.11622 31.1957 -13.8726 7.07073 -0.863 -0.312961 -18.0511 -19.0987 8.09651 3.62146 1.49943 1.23999 1.55898 8.80236 0.851072 -5.25958 -1.74898 6.51497 -5.96354e-016 -3.18055e-015 -0 -127.427 -60.3797 -41.429 5.4224 11.0628 -4.88073 0.368473 9.90896 -0.00117923 0.121611 1.05282 8.9852 109.488 -35.9151 56.3393 -0.829162 11.1062 -4.17002 -0.369625 9.91382 0.00119887 -2.10716 -20.38 -1.07453 -0.0421202 10.9878 21.6371 3.88294 10.5086 -0.377311 -16.2007 3.05035 3.56733 
129.427 98.7967 263.583 -2.38875 1.86155 168.379 -4.4806 3.28472 11.7274 3.37514 35.3444 -17.7842 5.9321 2.79744 -0.466742 -24.2577 -24.0242 11.3023 2.27445 2.29029 0.906466 0.1357 9.4608 0.87179 -3.61792 -2.33584 6.76807 1.98785e-016 3.18055e-015 1.59028e-015 -128.885 -59.7934 -44.116 6.07523 10.9426 -5.47256 0.368473 9.90896 -0.00117923 1.49425 1.07401 7.46387 110.589 -35.0662 56.6862 -1.24678 11.0742 -3.98842 -0.369625 9.91382 0.00119887 -3.04494 -19.5087 -4.33038 -1.52082 13.3252 24.1826 3.34125 9.42553 -0.278445 -11.0297 1.5519 2.6829 
129.363 98.8085 261.489 -3.27228 2.17334 168.656 -5.65452 0.949412 10.9513 4.32155 40.5882 -22.4009 3.84079 6.68475 -0.458551 -31.7784 -28.9114 15.9001 1.60076 2.54953 0.335599 -1.2341 9.64283 0.636734 -2.8931 -2.67905 7.15427 -3.97569e-016 1.59028e-015 1.59028e-015 -132.144 -59.8234 -48.2046 7.57491 10.7569 -5.79416 0.368473 9.90896 -0.00117923 1.00246 1.03642 7.55175 112.965 -35.5442 56.2688 -2.3352 10.9768 -3.43078 -0.369625 9.91382 0.00119887 -4.18772 -18.852 -5.19224 -2.34023 14.8267 24.7621 3.44494 8.66698 -0.259557 -7.28406 1.28729 1.58458 
129.302 98.7959 259.439 -4.08648 2.28684 168.982 -6.56604 -2.03456 9.40197 4.90036 46.0003 -27.2752 1.30019 10.4395 -0.303849 -38.3847 -33.1564 20.4523 1.08032 2.62309 -0.157622 -2.47396 9.78621 0.418163 -2.55382 -2.82499 7.45293 0 0 -1.59028e-015 -135.404 -59.5733 -52.1769 9.1175 10.5718 -6.02378 0.368473 9.90896 -0.00117923 0.181835 0.978386 7.82547 115.376 -36.4087 55.6534 -3.49485 10.8612 -2.86994 -0.369625 9.91382 0.00119887 -5.38668 -18.2818 -5.48684 -2.72985 16.127 24.8477 3.47833 7.84925 -0.232089 -4.6931 1.32848 0.708648 
129.22 98.7145 257.594 -4.66854 2.5167 169.087 -7.07055 -5.21191 6.87946 3.40868 51.3718 -31.1115 -1.27465 13.7593 0.0662141 -42.6943 -35.9548 23.4998 0.297879 2.71644 -0.208109 -3.44809 10.3336 0.508848 -2.41366 -2.6663 7.35988 -7.95139e-016 1.59028e-015 -0 -136.625 -58.3876 -54.1928 9.94107 10.4467 -6.29016 0.368473 9.90896 -0.00117923 0.134359 0.90846 7.07838 116.784 -36.9971 55.2651 -4.25199 10.7607 -2.65471 -0.369625 9.91382 0.00119887 -6.5982 -17.8056 -6.20372 -2.65654 17.7796 25.3134 3.0807 6.73906 -0.146156 -4.61416 1.17496 0.781057 
129.139 98.6797 255.788 -5.00305 2.65813 169.093 -7.33189 -8.46033 4.28299 1.43472 56.1199 -34.3588 -3.91983 16.2099 0.535907 -45.7988 -38.8599 24.3189 -0.392566 2.73301 -0.146576 -4.05586 10.734 0.607479 -2.47123 -2.23979 7.27541 -3.97569e-016 3.18055e-015 -3.18055e-015 -136.93 -57.1859 -55.2871 10.3576 10.3808 -6.4287 0.368473 9.90896 -0.00117923 0.341787 0.863914 6.34696 117.438 -37.7497 54.7495 -4.65336 10.6863 -2.60971 -0.369625 9.91382 0.00119887 -7.53912 -17.2169 -6.79092 -2.43009 19.121 25.7478 2.4556 5.70067 -0.0466006 -4.88148 0.844441 1.09148 
129.078 98.844 253.882 -4.95905 2.53202 168.988 -7.03746 -11.4704 2.59388 -0.481778 59.3221 -36.3086 -6.62409 16.8497 1.01417 -48.2734 -43.6457 20.4938 -0.669114 2.60932 -0.240155 -4.00994 10.3916 0.425809 -2.74134 -1.47154 7.66049 -3.97569e-016 0 -1.59028e-015 -137.048 -56.8462 -56.1195 10.3603 10.4248 -6.16776 0.368473 9.90896 -0.00117923 0.516946 0.903144 6.57819 117.128 -38.996 53.7347 -4.49511 10.6697 -2.68701 -0.369625 9.91382 0.00119887 -7.75672 -16.2296 -6.95192 -2.37477 19.4257 25.9787 1.57097 5.20039 0.0400653 -3.17114 -0.00297123 1.09552 
129.01 99.0518 251.969 -4.72499 2.3767 168.898 -6.47144 -14.2718 1.41222 -2.42278 61.6015 -36.8845 -8.91183 16.9007 1.44148 -51.4652 -48.4407 14.8876 -0.843541 2.45116 -0.314827 -3.7172 9.8834 0.214088 -3.01773 -0.589953 8.031 3.97569e-016 0 -0 -136.527 -56.5268 -56.2342 10.1427 10.4836 -5.95703 0.368473 9.90896 -0.00117923 1.08127 0.974268 6.83374 116.096 -40.41 52.6523 -4.05206 10.6793 -2.85362 -0.369625 9.91382 0.00119887 -7.73435 -15.0985 -6.92071 -2.30709 19.4711 26.0519 0.756869 4.69893 0.110832 -1.33711 -0.796066 1.02232 
128.889 99.1929 250.111 -4.44208 2.42128 168.96 -5.86905 -16.7759 0.684499 -3.75223 63.0996 -35.9382 -10.1218 17.5398 1.71813 -55.4115 -52.1129 11.183 -1.13318 2.35528 -0.24038 -3.50285 9.68322 0.174982 -3.05811 0.186619 7.95723 0 0 -0 -135.018 -55.5261 -55.2272 9.91915 10.4596 -6.26224 0.368473 9.90896 -0.00117923 2.49378 1.04156 6.2952 114.508 -41.7266 51.9463 -3.52729 10.691 -3.06641 -0.369625 9.91382 0.00119887 -7.84769 -13.9708 -6.81966 -2.14217 19.8501 25.9785 0.43522 3.65298 0.147645 -0.809559 -0.848278 0.878456 
128.785 99.2833 248.27 -4.11686 2.51353 169.135 -5.15475 -19.0644 0.397489 -4.56279 63.8782 -34.3865 -10.918 17.9621 1.90608 -58.5435 -54.5687 8.36257 -1.4953 2.28529 -0.1527 -3.30177 9.50667 0.158749 -2.8955 0.913595 7.73358 -3.97569e-016 0 3.18055e-015 -132.933 -54.2383 -53.6449 9.62391 10.413 -6.76429 0.368473 9.90896 -0.00117923 4.36095 1.11541 5.54966 112.549 -43.1081 51.3233 -2.93109 10.7147 -3.30805 -0.369625 9.91382 0.00119887 -7.95017 -12.8797 -6.67593 -1.96227 20.3731 25.7539 0.304435 2.54089 0.168478 -0.523066 -0.84534 0.785551 
128.767 99.2933 246.429 -3.81717 2.55471 169.428 -4.35542 -21.2385 0.643139 -4.01013 64.1029 -34.0888 -11.8381 17.6214 2.03786 -59.146 -55.2335 6.80333 -2.01488 2.23582 -0.150766 -3.1751 9.21173 0.0747557 -2.47985 1.54719 7.5244 1.98785e-016 0 -1.59028e-015 -130.502 -52.8294 -51.8191 9.29039 10.3659 -7.31513 0.368473 9.90896 -0.00117923 6.46041 1.19577 4.93784 110.403 -44.6146 50.589 -2.30627 10.7602 -3.56099 -0.369625 9.91382 0.00119887 -8.00647 -11.9838 -6.53519 -1.88548 21.1807 25.2885 0.126969 1.10121 0.193821 -0.560041 -0.890127 0.738587 
128.786 99.2486 244.586 -3.50087 2.61339 169.847 -3.49128 -23.1466 1.06223 -3.00911 63.6578 -33.3886 -12.5828 16.9164 2.09578 -57.5083 -54.4489 6.37697 -2.5287 2.21058 -0.214967 -3.0789 8.84475 -0.0499514 -1.85849 2.16108 7.28887 -4.41391e-032 -1.59028e-015 -1.59028e-015 -127.786 -51.2733 -49.8165 8.83709 10.3362 -7.86764 0.368473 9.90896 -0.00117923 8.73143 1.27817 4.38048 108.157 -46.2799 49.8251 -1.75819 10.8043 -3.7827 -0.369625 9.91382 0.00119887 -8.03208 -11.0579 -6.45419 -1.70552 21.8772 24.8467 0.132191 1.00999 0.197831 1.0928 -2.04468 1.12479 
128.817 99.1453 242.741 -3.1132 2.72341 170.456 -2.65764 -24.6877 1.1249 -2.11185 62.4348 -31.1058 -13.1604 16.0074 2.08218 -53.6923 -52.3304 6.97596 -2.8429 2.22606 -0.388129 -2.98573 8.37851 -0.236321 -1.00806 2.81468 7.02129 5.96354e-016 0 -1.59028e-015 -124.725 -49.5651 -47.653 8.14032 10.3588 -8.31772 0.368473 9.90896 -0.00117923 11.0983 1.36044 3.91779 105.968 -48.201 49.0702 -1.43114 10.8253 -3.9149 -0.369625 9.91382 0.00119887 -8.00102 -9.89458 -6.57116 -1.10989 21.8945 24.7529 0.655842 5.80655 0.136295 9.03889 -6.91117 2.93362 
128.861 99.0432 240.869 -2.76547 2.89085 171.088 -1.92061 -25.8172 1.3461 -1.04597 60.4116 -28.1952 -13.2101 15.0613 1.97743 -48.2681 -48.836 7.71022 -3.13346 2.23854 -0.581947 -2.90948 7.89175 -0.430755 -0.0898158 3.50708 6.78221 -5.96354e-016 -3.18055e-015 3.18055e-015 -121.785 -47.8428 -45.6717 7.36458 10.4068 -8.68918 0.368473 9.90896 -0.00117923 13.3819 1.43569 3.53197 103.81 -50.2595 48.2795 -1.25317 10.8295 -3.98681 -0.369625 9.91382 0.00119887 -7.98225 -8.60109 -6.69017 -0.61336 21.8671 24.7404 1.15692 9.63967 0.0851956 15.9999 -10.943 4.42834 
128.902 99.022 238.919 -2.63744 3.23394 171.503 -1.41154 -26.3515 2.27833 0.487962 57.5181 -25.3861 -12.3106 14.535 1.7624 -41.391 -43.9374 8.17724 -3.58916 2.23333 -0.673163 -2.91014 7.55579 -0.539685 0.739377 4.24938 6.66971 7.95139e-016 -3.18055e-015 -1.59028e-015 -119.41 -46.2806 -44.2322 6.65954 10.4666 -8.92679 0.368473 9.90896 -0.00117923 15.2944 1.48289 3.19425 101.781 -52.3149 47.4176 -1.20582 10.8159 -4.00601 -0.369625 9.91382 0.00119887 -8.16136 -7.09514 -6.55612 -0.804541 22.3919 24.612 1.06111 5.59903 0.13273 12.7321 -8.72382 3.23943 
